<svg xmlns="http://www.w3.org/2000/svg" xmlns:xlink="http://www.w3.org/1999/xlink" width="1500" zoomAndPan="magnify" viewBox="0 0 1125 374.999991" height="500" preserveAspectRatio="xMidYMid meet" version="1.0"><defs><g/><clipPath id="11630e7345"><path d="M 70 107 L 227 107 L 227 257 L 70 257 Z M 70 107 " clip-rule="nonzero"/></clipPath><clipPath id="1cb2f43207"><path d="M 148.125 107.988281 L 226.25 256.425781 L 70 256.425781 Z M 95 235.332031 L 202.5 189.238281 L 199.375 182.207031 L 91.875 228.300781 Z M 106.71875 211.894531 L 214.21875 165.800781 L 211.09375 158.769531 L 103.59375 204.863281 Z M 106.71875 211.894531 " clip-rule="evenodd"/></clipPath><linearGradient x1="-0.0000000581066" gradientTransform="matrix(156.249981, 0, 0, 148.437481, 70.000012, 107.989227)" y1="-0.0000000581066" x2="1" gradientUnits="userSpaceOnUse" y2="1" id="7647e3bbb2"><stop stop-opacity="1" stop-color="rgb(4.309082%, 23.919678%, 56.858826%)" offset="0"/><stop stop-opacity="1" stop-color="rgb(4.321289%, 24.093628%, 56.752014%)" offset="0.015625"/><stop stop-opacity="1" stop-color="rgb(4.345703%, 24.443054%, 56.536865%)" offset="0.03125"/><stop stop-opacity="1" stop-color="rgb(4.370117%, 24.790955%, 56.323242%)" offset="0.046875"/><stop stop-opacity="1" stop-color="rgb(4.394531%, 25.140381%, 56.108093%)" offset="0.0625"/><stop stop-opacity="1" stop-color="rgb(4.418945%, 25.489807%, 55.89447%)" offset="0.078125"/><stop stop-opacity="1" stop-color="rgb(4.443359%, 25.839233%, 55.679321%)" offset="0.09375"/><stop stop-opacity="1" stop-color="rgb(4.469299%, 26.18866%, 55.465698%)" offset="0.109375"/><stop stop-opacity="1" stop-color="rgb(4.493713%, 26.538086%, 55.250549%)" offset="0.125"/><stop stop-opacity="1" stop-color="rgb(4.518127%, 26.887512%, 55.036926%)" offset="0.140625"/><stop stop-opacity="1" stop-color="rgb(4.542542%, 27.235413%, 54.821777%)" offset="0.15625"/><stop stop-opacity="1" stop-color="rgb(4.566956%, 27.584839%, 54.608154%)" offset="0.171875"/><stop stop-opacity="1" stop-color="rgb(4.59137%, 27.934265%, 54.393005%)" offset="0.1875"/><stop stop-opacity="1" stop-color="rgb(4.615784%, 28.283691%, 54.179382%)" offset="0.203125"/><stop stop-opacity="1" stop-color="rgb(4.640198%, 28.633118%, 53.964233%)" offset="0.21875"/><stop stop-opacity="1" stop-color="rgb(4.664612%, 28.982544%, 53.75061%)" offset="0.234375"/><stop stop-opacity="1" stop-color="rgb(4.689026%, 29.33197%, 53.535461%)" offset="0.25"/><stop stop-opacity="1" stop-color="rgb(4.71344%, 29.681396%, 53.321838%)" offset="0.265625"/><stop stop-opacity="1" stop-color="rgb(4.737854%, 30.029297%, 53.106689%)" offset="0.28125"/><stop stop-opacity="1" stop-color="rgb(4.762268%, 30.378723%, 52.893066%)" offset="0.296875"/><stop stop-opacity="1" stop-color="rgb(4.788208%, 30.728149%, 52.677917%)" offset="0.3125"/><stop stop-opacity="1" stop-color="rgb(4.812622%, 31.077576%, 52.464294%)" offset="0.328125"/><stop stop-opacity="1" stop-color="rgb(4.837036%, 31.427002%, 52.249146%)" offset="0.34375"/><stop stop-opacity="1" stop-color="rgb(4.86145%, 31.776428%, 52.035522%)" offset="0.359375"/><stop stop-opacity="1" stop-color="rgb(4.885864%, 32.125854%, 51.820374%)" offset="0.375"/><stop stop-opacity="1" stop-color="rgb(4.910278%, 32.473755%, 51.60675%)" offset="0.390625"/><stop stop-opacity="1" stop-color="rgb(4.934692%, 32.823181%, 51.391602%)" offset="0.40625"/><stop stop-opacity="1" stop-color="rgb(4.959106%, 33.172607%, 51.177979%)" offset="0.421875"/><stop stop-opacity="1" stop-color="rgb(4.983521%, 33.522034%, 50.96283%)" offset="0.4375"/><stop stop-opacity="1" stop-color="rgb(5.007935%, 33.87146%, 50.749207%)" offset="0.453125"/><stop stop-opacity="1" stop-color="rgb(5.032349%, 34.220886%, 50.534058%)" offset="0.46875"/><stop stop-opacity="1" stop-color="rgb(5.056763%, 34.570312%, 50.320435%)" offset="0.484375"/><stop stop-opacity="1" stop-color="rgb(5.081177%, 34.918213%, 50.106812%)" offset="0.5"/><stop stop-opacity="1" stop-color="rgb(5.09491%, 35.093689%, 50%)" offset="0.5"/><stop stop-opacity="1" stop-color="rgb(5.107117%, 35.267639%, 49.891663%)" offset="0.5"/><stop stop-opacity="1" stop-color="rgb(5.119324%, 35.443115%, 49.784851%)" offset="0.515625"/><stop stop-opacity="1" stop-color="rgb(5.131531%, 35.617065%, 49.67804%)" offset="0.53125"/><stop stop-opacity="1" stop-color="rgb(5.155945%, 35.966492%, 49.462891%)" offset="0.546875"/><stop stop-opacity="1" stop-color="rgb(5.180359%, 36.315918%, 49.249268%)" offset="0.5625"/><stop stop-opacity="1" stop-color="rgb(5.204773%, 36.665344%, 49.034119%)" offset="0.578125"/><stop stop-opacity="1" stop-color="rgb(5.229187%, 37.014771%, 48.820496%)" offset="0.59375"/><stop stop-opacity="1" stop-color="rgb(5.253601%, 37.364197%, 48.605347%)" offset="0.609375"/><stop stop-opacity="1" stop-color="rgb(5.278015%, 37.712097%, 48.391724%)" offset="0.625"/><stop stop-opacity="1" stop-color="rgb(5.302429%, 38.061523%, 48.176575%)" offset="0.640625"/><stop stop-opacity="1" stop-color="rgb(5.326843%, 38.41095%, 47.962952%)" offset="0.65625"/><stop stop-opacity="1" stop-color="rgb(5.351257%, 38.760376%, 47.747803%)" offset="0.671875"/><stop stop-opacity="1" stop-color="rgb(5.375671%, 39.109802%, 47.53418%)" offset="0.6875"/><stop stop-opacity="1" stop-color="rgb(5.400085%, 39.459229%, 47.319031%)" offset="0.703125"/><stop stop-opacity="1" stop-color="rgb(5.426025%, 39.808655%, 47.105408%)" offset="0.71875"/><stop stop-opacity="1" stop-color="rgb(5.450439%, 40.156555%, 46.890259%)" offset="0.734375"/><stop stop-opacity="1" stop-color="rgb(5.474854%, 40.505981%, 46.676636%)" offset="0.75"/><stop stop-opacity="1" stop-color="rgb(5.499268%, 40.855408%, 46.461487%)" offset="0.765625"/><stop stop-opacity="1" stop-color="rgb(5.523682%, 41.204834%, 46.247864%)" offset="0.78125"/><stop stop-opacity="1" stop-color="rgb(5.548096%, 41.55426%, 46.032715%)" offset="0.796875"/><stop stop-opacity="1" stop-color="rgb(5.57251%, 41.903687%, 45.819092%)" offset="0.8125"/><stop stop-opacity="1" stop-color="rgb(5.596924%, 42.253113%, 45.603943%)" offset="0.828125"/><stop stop-opacity="1" stop-color="rgb(5.621338%, 42.602539%, 45.39032%)" offset="0.84375"/><stop stop-opacity="1" stop-color="rgb(5.645752%, 42.950439%, 45.175171%)" offset="0.859375"/><stop stop-opacity="1" stop-color="rgb(5.670166%, 43.299866%, 44.961548%)" offset="0.875"/><stop stop-opacity="1" stop-color="rgb(5.69458%, 43.649292%, 44.746399%)" offset="0.890625"/><stop stop-opacity="1" stop-color="rgb(5.718994%, 43.998718%, 44.532776%)" offset="0.90625"/><stop stop-opacity="1" stop-color="rgb(5.744934%, 44.348145%, 44.317627%)" offset="0.921875"/><stop stop-opacity="1" stop-color="rgb(5.769348%, 44.697571%, 44.104004%)" offset="0.9375"/><stop stop-opacity="1" stop-color="rgb(5.793762%, 45.046997%, 43.888855%)" offset="0.953125"/><stop stop-opacity="1" stop-color="rgb(5.818176%, 45.394897%, 43.675232%)" offset="0.96875"/><stop stop-opacity="1" stop-color="rgb(5.84259%, 45.744324%, 43.460083%)" offset="0.984375"/><stop stop-opacity="1" stop-color="rgb(5.867004%, 46.09375%, 43.24646%)" offset="1"/></linearGradient><clipPath id="656caf2eb6"><rect x="0" width="348" y="0" height="97"/></clipPath></defs><g clip-path="url(#11630e7345)"><g clip-path="url(#1cb2f43207)"><path fill="url(#7647e3bbb2)" d="M 70 107.988281 L 70 256.425781 L 226.25 256.425781 L 226.25 107.988281 Z M 70 107.988281 " fill-rule="nonzero"/></g></g><g transform="matrix(1, 0, 0, 1, 356, 95)"><g clip-path="url(#656caf2eb6)"><g fill="#0b3d91" fill-opacity="1"><g transform="translate(1.059985, 77.101718)"><g><path d="M 24.859375 -45.140625 L 11.8125 -45.140625 L 11.8125 -23.765625 L 24.859375 -23.765625 C 26.691406 -23.765625 28.414062 -24.175781 30.03125 -25 C 31.65625 -25.820312 32.960938 -27.015625 33.953125 -28.578125 C 34.941406 -30.148438 35.4375 -32.097656 35.4375 -34.421875 C 35.4375 -36.742188 34.941406 -38.703125 33.953125 -40.296875 C 32.960938 -41.890625 31.671875 -43.09375 30.078125 -43.90625 C 28.484375 -44.726562 26.742188 -45.140625 24.859375 -45.140625 Z M 24.921875 -18.1875 L 11.8125 -18.1875 L 11.8125 0 L 5.875 0 L 5.875 -50.734375 L 24.921875 -50.734375 C 27.921875 -50.734375 30.664062 -50.101562 33.15625 -48.84375 C 35.644531 -47.582031 37.625 -45.742188 39.09375 -43.328125 C 40.570312 -40.921875 41.3125 -37.953125 41.3125 -34.421875 C 41.3125 -30.941406 40.5625 -27.992188 39.0625 -25.578125 C 37.5625 -23.160156 35.578125 -21.320312 33.109375 -20.0625 C 30.648438 -18.8125 27.921875 -18.1875 24.921875 -18.1875 Z M 24.921875 -18.1875 "/></g></g></g><g fill="#0b3d91" fill-opacity="1"><g transform="translate(45.334624, 77.101718)"><g><path d="M 5.5 -36.234375 L 11.09375 -36.234375 L 11.09375 -28.765625 C 12.4375 -31.179688 14.289062 -33.160156 16.65625 -34.703125 C 19.03125 -36.253906 21.691406 -37.03125 24.640625 -37.03125 L 24.640625 -31.234375 C 22.128906 -31.234375 19.847656 -30.6875 17.796875 -29.59375 C 15.742188 -28.507812 14.113281 -27.015625 12.90625 -25.109375 C 11.695312 -23.203125 11.09375 -21.039062 11.09375 -18.625 L 11.09375 0 L 5.5 0 Z M 5.5 -36.234375 "/></g></g></g><g fill="#0b3d91" fill-opacity="1"><g transform="translate(72.218228, 77.101718)"><g><path d="M 11.15625 -36.234375 L 11.15625 0 L 5.578125 0 L 5.578125 -36.234375 Z M 4.921875 -47.328125 C 4.921875 -48.285156 5.25 -49.101562 5.90625 -49.78125 C 6.5625 -50.457031 7.367188 -50.796875 8.328125 -50.796875 C 9.296875 -50.796875 10.117188 -50.457031 10.796875 -49.78125 C 11.472656 -49.101562 11.8125 -48.285156 11.8125 -47.328125 C 11.8125 -46.359375 11.472656 -45.546875 10.796875 -44.890625 C 10.117188 -44.242188 9.296875 -43.921875 8.328125 -43.921875 C 7.367188 -43.921875 6.5625 -44.242188 5.90625 -44.890625 C 5.25 -45.546875 4.921875 -46.359375 4.921875 -47.328125 Z M 4.921875 -47.328125 "/></g></g></g><g fill="#0b3d91" fill-opacity="1"><g transform="translate(88.957091, 77.101718)"><g><path d="M 3.1875 -10.4375 L 8.703125 -10.4375 C 8.742188 -8.789062 9.160156 -7.484375 9.953125 -6.515625 C 10.753906 -5.554688 11.78125 -4.859375 13.03125 -4.421875 C 14.289062 -3.984375 15.597656 -3.765625 16.953125 -3.765625 C 18.359375 -3.765625 19.6875 -3.957031 20.9375 -4.34375 C 22.195312 -4.726562 23.25 -5.351562 24.09375 -6.21875 C 24.9375 -7.09375 25.382812 -8.234375 25.4375 -9.640625 C 25.488281 -11.234375 25.003906 -12.476562 23.984375 -13.375 C 22.972656 -14.269531 21.644531 -14.96875 20 -15.46875 C 18.351562 -15.976562 16.613281 -16.445312 14.78125 -16.875 C 12.945312 -17.3125 11.21875 -17.894531 9.59375 -18.625 C 7.976562 -19.351562 6.648438 -20.367188 5.609375 -21.671875 C 4.578125 -22.972656 4.082031 -24.734375 4.125 -26.953125 C 4.175781 -29.421875 4.84375 -31.398438 6.125 -32.890625 C 7.40625 -34.390625 9.046875 -35.488281 11.046875 -36.1875 C 13.054688 -36.894531 15.195312 -37.222656 17.46875 -37.171875 C 21.09375 -37.128906 24.085938 -36.1875 26.453125 -34.34375 C 28.816406 -32.507812 30.097656 -30.023438 30.296875 -26.890625 L 25 -26.890625 C 24.8125 -28.671875 23.96875 -30.046875 22.46875 -31.015625 C 20.96875 -31.984375 19.273438 -32.46875 17.390625 -32.46875 C 16.179688 -32.46875 15 -32.296875 13.84375 -31.953125 C 12.6875 -31.617188 11.734375 -31.0625 10.984375 -30.28125 C 10.234375 -29.507812 9.832031 -28.5 9.78125 -27.25 C 9.726562 -25.800781 10.222656 -24.6875 11.265625 -23.90625 C 12.304688 -23.132812 13.632812 -22.519531 15.25 -22.0625 C 16.875 -21.601562 18.601562 -21.128906 20.4375 -20.640625 C 22.269531 -20.160156 23.992188 -19.519531 25.609375 -18.71875 C 27.234375 -17.925781 28.550781 -16.816406 29.5625 -15.390625 C 30.582031 -13.972656 31.066406 -12.054688 31.015625 -9.640625 C 30.960938 -7.273438 30.257812 -5.289062 28.90625 -3.6875 C 27.5625 -2.09375 25.828125 -0.921875 23.703125 -0.171875 C 21.578125 0.566406 19.304688 0.9375 16.890625 0.9375 C 14.617188 0.894531 12.453125 0.515625 10.390625 -0.203125 C 8.335938 -0.929688 6.644531 -2.128906 5.3125 -3.796875 C 3.988281 -5.472656 3.28125 -7.6875 3.1875 -10.4375 Z M 3.1875 -10.4375 "/></g></g></g><g fill="#0b3d91" fill-opacity="1"><g transform="translate(123.231881, 77.101718)"><g><path d="M 46.09375 -37.171875 C 49.039062 -37.171875 51.453125 -36.578125 53.328125 -35.390625 C 55.210938 -34.210938 56.613281 -32.617188 57.53125 -30.609375 C 58.457031 -28.609375 58.921875 -26.378906 58.921875 -23.921875 L 58.921875 0 L 53.34375 0 L 53.34375 -22.609375 C 53.34375 -25.753906 52.566406 -28.125 51.015625 -29.71875 C 49.472656 -31.3125 47.375 -32.109375 44.71875 -32.109375 C 41.863281 -32.109375 39.53125 -31.019531 37.71875 -28.84375 C 35.90625 -26.664062 35 -23.9375 35 -20.65625 L 35 0 L 29.421875 0 L 29.421875 -22.609375 C 29.421875 -25.609375 28.695312 -27.941406 27.25 -29.609375 C 25.800781 -31.273438 23.796875 -32.109375 21.234375 -32.109375 C 18.285156 -32.109375 15.859375 -31.03125 13.953125 -28.875 C 12.046875 -26.726562 11.09375 -23.867188 11.09375 -20.296875 L 11.09375 0 L 5.5 0 L 5.5 -36.234375 L 11.09375 -36.234375 L 11.09375 -30.578125 C 12.101562 -32.515625 13.425781 -34.023438 15.0625 -35.109375 C 16.707031 -36.191406 18.644531 -36.804688 20.875 -36.953125 C 22.375 -37.097656 23.722656 -37.078125 24.921875 -36.890625 C 27.335938 -36.597656 29.28125 -35.796875 30.75 -34.484375 C 32.226562 -33.179688 33.304688 -31.539062 33.984375 -29.5625 C 36.691406 -34.632812 40.726562 -37.171875 46.09375 -37.171875 Z M 46.09375 -37.171875 "/></g></g></g><g fill="#0b3d91" fill-opacity="1"><g transform="translate(187.071408, 77.101718)"><g><path d="M 36.953125 -50.734375 L 36.953125 -45.140625 L 11.8125 -45.140625 L 11.8125 -27.75 L 33.921875 -27.75 L 33.921875 -22.171875 L 11.8125 -22.171875 L 11.8125 0 L 5.875 0 L 5.875 -50.734375 Z M 36.953125 -50.734375 "/></g></g></g><g fill="#0b3d91" fill-opacity="1"><g transform="translate(226.273676, 77.101718)"><g><path d="M 21.890625 -4.421875 C 24.347656 -4.421875 26.566406 -5 28.546875 -6.15625 C 30.535156 -7.320312 32.109375 -8.929688 33.265625 -10.984375 C 34.421875 -13.035156 35 -15.414062 35 -18.125 C 35 -20.820312 34.421875 -23.195312 33.265625 -25.25 C 32.109375 -27.300781 30.535156 -28.90625 28.546875 -30.0625 C 26.566406 -31.226562 24.347656 -31.8125 21.890625 -31.8125 C 19.421875 -31.8125 17.195312 -31.226562 15.21875 -30.0625 C 13.238281 -28.90625 11.664062 -27.300781 10.5 -25.25 C 9.34375 -23.195312 8.765625 -20.820312 8.765625 -18.125 C 8.765625 -15.414062 9.34375 -13.035156 10.5 -10.984375 C 11.664062 -8.929688 13.238281 -7.320312 15.21875 -6.15625 C 17.195312 -5 19.421875 -4.421875 21.890625 -4.421875 Z M 21.890625 -37.171875 C 25.410156 -37.171875 28.570312 -36.382812 31.375 -34.8125 C 34.175781 -33.25 36.410156 -31.039062 38.078125 -28.1875 C 39.742188 -25.34375 40.578125 -21.988281 40.578125 -18.125 C 40.578125 -14.300781 39.742188 -10.953125 38.078125 -8.078125 C 36.410156 -5.203125 34.175781 -2.976562 31.375 -1.40625 C 28.570312 0.15625 25.410156 0.9375 21.890625 0.9375 C 18.410156 0.9375 15.253906 0.15625 12.421875 -1.40625 C 9.597656 -2.976562 7.351562 -5.203125 5.6875 -8.078125 C 4.019531 -10.953125 3.1875 -14.300781 3.1875 -18.125 C 3.1875 -21.988281 4.019531 -25.34375 5.6875 -28.1875 C 7.351562 -31.039062 9.597656 -33.25 12.421875 -34.8125 C 15.253906 -36.382812 18.410156 -37.171875 21.890625 -37.171875 Z M 21.890625 -37.171875 "/></g></g></g><g fill="#0b3d91" fill-opacity="1"><g transform="translate(270.04108, 77.101718)"><g><path d="M 5.5 -51.671875 L 11.09375 -51.671875 L 11.09375 0 L 5.5 0 Z M 5.5 -51.671875 "/></g></g></g><g fill="#0b3d91" fill-opacity="1"><g transform="translate(286.635005, 77.101718)"><g><path d="M 11.15625 -36.234375 L 11.15625 0 L 5.578125 0 L 5.578125 -36.234375 Z M 4.921875 -47.328125 C 4.921875 -48.285156 5.25 -49.101562 5.90625 -49.78125 C 6.5625 -50.457031 7.367188 -50.796875 8.328125 -50.796875 C 9.296875 -50.796875 10.117188 -50.457031 10.796875 -49.78125 C 11.472656 -49.101562 11.8125 -48.285156 11.8125 -47.328125 C 11.8125 -46.359375 11.472656 -45.546875 10.796875 -44.890625 C 10.117188 -44.242188 9.296875 -43.921875 8.328125 -43.921875 C 7.367188 -43.921875 6.5625 -44.242188 5.90625 -44.890625 C 5.25 -45.546875 4.921875 -46.359375 4.921875 -47.328125 Z M 4.921875 -47.328125 "/></g></g></g><g fill="#0b3d91" fill-opacity="1"><g transform="translate(303.373868, 77.101718)"><g><path d="M 21.890625 -4.421875 C 24.347656 -4.421875 26.566406 -5 28.546875 -6.15625 C 30.535156 -7.320312 32.109375 -8.929688 33.265625 -10.984375 C 34.421875 -13.035156 35 -15.414062 35 -18.125 C 35 -20.820312 34.421875 -23.195312 33.265625 -25.25 C 32.109375 -27.300781 30.535156 -28.90625 28.546875 -30.0625 C 26.566406 -31.226562 24.347656 -31.8125 21.890625 -31.8125 C 19.421875 -31.8125 17.195312 -31.226562 15.21875 -30.0625 C 13.238281 -28.90625 11.664062 -27.300781 10.5 -25.25 C 9.34375 -23.195312 8.765625 -20.820312 8.765625 -18.125 C 8.765625 -15.414062 9.34375 -13.035156 10.5 -10.984375 C 11.664062 -8.929688 13.238281 -7.320312 15.21875 -6.15625 C 17.195312 -5 19.421875 -4.421875 21.890625 -4.421875 Z M 21.890625 -37.171875 C 25.410156 -37.171875 28.570312 -36.382812 31.375 -34.8125 C 34.175781 -33.25 36.410156 -31.039062 38.078125 -28.1875 C 39.742188 -25.34375 40.578125 -21.988281 40.578125 -18.125 C 40.578125 -14.300781 39.742188 -10.953125 38.078125 -8.078125 C 36.410156 -5.203125 34.175781 -2.976562 31.375 -1.40625 C 28.570312 0.15625 25.410156 0.9375 21.890625 0.9375 C 18.410156 0.9375 15.253906 0.15625 12.421875 -1.40625 C 9.597656 -2.976562 7.351562 -5.203125 5.6875 -8.078125 C 4.019531 -10.953125 3.1875 -14.300781 3.1875 -18.125 C 3.1875 -21.988281 4.019531 -25.34375 5.6875 -28.1875 C 7.351562 -31.039062 9.597656 -33.25 12.421875 -34.8125 C 15.253906 -36.382812 18.410156 -37.171875 21.890625 -37.171875 Z M 21.890625 -37.171875 "/></g></g></g></g></g><g fill="#0f766e" fill-opacity="1"><g transform="translate(359.530186, 222.999977)"><g><path d="M 3.890625 -24.5 L 11.125 -11.828125 L 18.375 -24.5 L 21.671875 -24.5 L 12.5625 -9.234375 L 12.5625 0 L 9.6875 0 L 9.6875 -9.234375 L 0.5625 -24.5 Z M 3.890625 -24.5 "/></g></g></g><g fill="#0f766e" fill-opacity="1"><g transform="translate(377.900721, 222.999977)"><g><path d="M 10.5625 -2.140625 C 11.757812 -2.140625 12.832031 -2.414062 13.78125 -2.96875 C 14.738281 -3.53125 15.5 -4.304688 16.0625 -5.296875 C 16.625 -6.296875 16.90625 -7.445312 16.90625 -8.75 C 16.90625 -10.050781 16.625 -11.195312 16.0625 -12.1875 C 15.5 -13.1875 14.738281 -13.960938 13.78125 -14.515625 C 12.832031 -15.078125 11.757812 -15.359375 10.5625 -15.359375 C 9.375 -15.359375 8.300781 -15.078125 7.34375 -14.515625 C 6.394531 -13.960938 5.640625 -13.1875 5.078125 -12.1875 C 4.515625 -11.195312 4.234375 -10.050781 4.234375 -8.75 C 4.234375 -7.445312 4.515625 -6.296875 5.078125 -5.296875 C 5.640625 -4.304688 6.394531 -3.53125 7.34375 -2.96875 C 8.300781 -2.414062 9.375 -2.140625 10.5625 -2.140625 Z M 10.5625 -17.953125 C 12.269531 -17.953125 13.800781 -17.570312 15.15625 -16.8125 C 16.507812 -16.0625 17.585938 -14.992188 18.390625 -13.609375 C 19.191406 -12.234375 19.59375 -10.613281 19.59375 -8.75 C 19.59375 -6.90625 19.191406 -5.285156 18.390625 -3.890625 C 17.585938 -2.503906 16.507812 -1.429688 15.15625 -0.671875 C 13.800781 0.078125 12.269531 0.453125 10.5625 0.453125 C 8.882812 0.453125 7.363281 0.078125 6 -0.671875 C 4.632812 -1.429688 3.550781 -2.503906 2.75 -3.890625 C 1.945312 -5.285156 1.546875 -6.90625 1.546875 -8.75 C 1.546875 -10.613281 1.945312 -12.234375 2.75 -13.609375 C 3.550781 -14.992188 4.632812 -16.0625 6 -16.8125 C 7.363281 -17.570312 8.882812 -17.953125 10.5625 -17.953125 Z M 10.5625 -17.953125 "/></g></g></g><g fill="#0f766e" fill-opacity="1"><g transform="translate(399.035943, 222.999977)"><g><path d="M 9.0625 0.453125 C 7.144531 0.453125 5.550781 -0.125 4.28125 -1.28125 C 3.007812 -2.4375 2.375 -4.164062 2.375 -6.46875 L 2.375 -17.5 L 5.078125 -17.5 L 5.078125 -6.71875 C 5.078125 -5.269531 5.472656 -4.117188 6.265625 -3.265625 C 7.054688 -2.421875 8.175781 -2 9.625 -2 C 11.257812 -2 12.566406 -2.554688 13.546875 -3.671875 C 14.523438 -4.796875 15.015625 -6.265625 15.015625 -8.078125 L 15.015625 -17.5 L 17.703125 -17.5 L 17.703125 0 L 15.015625 0 L 15.015625 -3.078125 C 14.429688 -1.929688 13.632812 -1.054688 12.625 -0.453125 C 11.625 0.148438 10.4375 0.453125 9.0625 0.453125 Z M 9.0625 0.453125 "/></g></g></g><g fill="#0f766e" fill-opacity="1"><g transform="translate(419.401344, 222.999977)"><g><path d="M 2.65625 -17.5 L 5.359375 -17.5 L 5.359375 -13.890625 C 6.003906 -15.054688 6.898438 -16.015625 8.046875 -16.765625 C 9.191406 -17.515625 10.476562 -17.890625 11.90625 -17.890625 L 11.90625 -15.078125 C 10.6875 -15.078125 9.582031 -14.816406 8.59375 -14.296875 C 7.601562 -13.773438 6.816406 -13.050781 6.234375 -12.125 C 5.648438 -11.207031 5.359375 -10.164062 5.359375 -9 L 5.359375 0 L 2.65625 0 Z M 2.65625 -17.5 "/></g></g></g><g fill="#0f766e" fill-opacity="1"><g transform="translate(441.866267, 222.999977)"><g><path d="M 11.9375 -2 C 13.050781 -2 14.113281 -2.257812 15.125 -2.78125 C 16.144531 -3.300781 16.96875 -4.0625 17.59375 -5.0625 C 18.226562 -6.070312 18.546875 -7.300781 18.546875 -8.75 C 18.546875 -10.195312 18.226562 -11.421875 17.59375 -12.421875 C 16.96875 -13.429688 16.144531 -14.195312 15.125 -14.71875 C 14.113281 -15.238281 13.050781 -15.5 11.9375 -15.5 C 10.882812 -15.5 9.832031 -15.25 8.78125 -14.75 C 7.726562 -14.25 6.851562 -13.492188 6.15625 -12.484375 C 5.457031 -11.484375 5.109375 -10.238281 5.109375 -8.75 C 5.109375 -7.257812 5.457031 -6.007812 6.15625 -5 C 6.851562 -4 7.726562 -3.25 8.78125 -2.75 C 9.832031 -2.25 10.882812 -2 11.9375 -2 Z M 2.65625 7 L 2.65625 -17.5 L 5.359375 -17.5 L 5.359375 -14.140625 C 6.148438 -15.441406 7.175781 -16.398438 8.4375 -17.015625 C 9.695312 -17.640625 11.015625 -17.953125 12.390625 -17.953125 C 14.085938 -17.953125 15.597656 -17.5625 16.921875 -16.78125 C 18.242188 -16 19.296875 -14.910156 20.078125 -13.515625 C 20.859375 -12.128906 21.25 -10.539062 21.25 -8.75 C 21.25 -6.957031 20.859375 -5.363281 20.078125 -3.96875 C 19.296875 -2.582031 18.242188 -1.5 16.921875 -0.71875 C 15.597656 0.0625 14.085938 0.453125 12.390625 0.453125 C 11.015625 0.453125 9.691406 0.148438 8.421875 -0.453125 C 7.148438 -1.054688 6.128906 -2.015625 5.359375 -3.328125 L 5.359375 7 Z M 2.65625 7 "/></g></g></g><g fill="#0f766e" fill-opacity="1"><g transform="translate(464.646119, 222.999977)"><g><path d="M 10.5625 -2.140625 C 11.757812 -2.140625 12.832031 -2.414062 13.78125 -2.96875 C 14.738281 -3.53125 15.5 -4.304688 16.0625 -5.296875 C 16.625 -6.296875 16.90625 -7.445312 16.90625 -8.75 C 16.90625 -10.050781 16.625 -11.195312 16.0625 -12.1875 C 15.5 -13.1875 14.738281 -13.960938 13.78125 -14.515625 C 12.832031 -15.078125 11.757812 -15.359375 10.5625 -15.359375 C 9.375 -15.359375 8.300781 -15.078125 7.34375 -14.515625 C 6.394531 -13.960938 5.640625 -13.1875 5.078125 -12.1875 C 4.515625 -11.195312 4.234375 -10.050781 4.234375 -8.75 C 4.234375 -7.445312 4.515625 -6.296875 5.078125 -5.296875 C 5.640625 -4.304688 6.394531 -3.53125 7.34375 -2.96875 C 8.300781 -2.414062 9.375 -2.140625 10.5625 -2.140625 Z M 10.5625 -17.953125 C 12.269531 -17.953125 13.800781 -17.570312 15.15625 -16.8125 C 16.507812 -16.0625 17.585938 -14.992188 18.390625 -13.609375 C 19.191406 -12.234375 19.59375 -10.613281 19.59375 -8.75 C 19.59375 -6.90625 19.191406 -5.285156 18.390625 -3.890625 C 17.585938 -2.503906 16.507812 -1.429688 15.15625 -0.671875 C 13.800781 0.078125 12.269531 0.453125 10.5625 0.453125 C 8.882812 0.453125 7.363281 0.078125 6 -0.671875 C 4.632812 -1.429688 3.550781 -2.503906 2.75 -3.890625 C 1.945312 -5.285156 1.546875 -6.90625 1.546875 -8.75 C 1.546875 -10.613281 1.945312 -12.234375 2.75 -13.609375 C 3.550781 -14.992188 4.632812 -16.0625 6 -16.8125 C 7.363281 -17.570312 8.882812 -17.953125 10.5625 -17.953125 Z M 10.5625 -17.953125 "/></g></g></g><g fill="#0f766e" fill-opacity="1"><g transform="translate(485.606361, 222.999977)"><g><path d="M 2.65625 -17.5 L 5.359375 -17.5 L 5.359375 -13.890625 C 6.003906 -15.054688 6.898438 -16.015625 8.046875 -16.765625 C 9.191406 -17.515625 10.476562 -17.890625 11.90625 -17.890625 L 11.90625 -15.078125 C 10.6875 -15.078125 9.582031 -14.816406 8.59375 -14.296875 C 7.601562 -13.773438 6.816406 -13.050781 6.234375 -12.125 C 5.648438 -11.207031 5.359375 -10.164062 5.359375 -9 L 5.359375 0 L 2.65625 0 Z M 2.65625 -17.5 "/></g></g></g><g fill="#0f766e" fill-opacity="1"><g transform="translate(499.288321, 222.999977)"><g><path d="M 11.546875 -2.625 L 11.546875 -0.25 C 11.078125 -0.0820312 10.601562 0.0390625 10.125 0.125 C 9.65625 0.207031 9.113281 0.25 8.5 0.25 C 6.6875 0.25 5.367188 -0.296875 4.546875 -1.390625 C 3.734375 -2.492188 3.328125 -3.957031 3.328125 -5.78125 L 3.328125 -15.046875 L 0.734375 -15.046875 L 0.734375 -17.5 L 3.328125 -17.5 L 3.328125 -21.421875 L 6.015625 -21.84375 L 6.015625 -17.5 L 11.265625 -17.5 L 11.265625 -15.046875 L 6.015625 -15.046875 L 6.015625 -5.953125 C 6.015625 -4.734375 6.25 -3.796875 6.71875 -3.140625 C 7.1875 -2.492188 7.957031 -2.171875 9.03125 -2.171875 C 9.894531 -2.171875 10.734375 -2.320312 11.546875 -2.625 Z M 11.546875 -2.625 "/></g></g></g><g fill="#0f766e" fill-opacity="1"><g transform="translate(512.445352, 222.999977)"><g><path d="M 8.546875 -24.953125 C 8.941406 -24.953125 9.367188 -24.921875 9.828125 -24.859375 C 10.296875 -24.804688 10.679688 -24.734375 10.984375 -24.640625 L 10.984375 -22.328125 C 10.285156 -22.535156 9.597656 -22.640625 8.921875 -22.640625 C 8.035156 -22.640625 7.335938 -22.382812 6.828125 -21.875 C 6.316406 -21.363281 6.0625 -20.628906 6.0625 -19.671875 L 6.0625 -17.5 L 10.390625 -17.5 L 10.390625 -15.046875 L 6.0625 -15.046875 L 6.0625 0 L 3.359375 0 L 3.359375 -15.046875 L 0.734375 -15.046875 L 0.734375 -17.5 L 3.359375 -17.5 L 3.359375 -18.90625 C 3.359375 -20.675781 3.757812 -22.125 4.5625 -23.25 C 5.375 -24.382812 6.703125 -24.953125 8.546875 -24.953125 Z M 8.546875 -24.953125 "/></g></g></g><g fill="#0f766e" fill-opacity="1"><g transform="translate(524.167706, 222.999977)"><g><path d="M 10.5625 -2.140625 C 11.757812 -2.140625 12.832031 -2.414062 13.78125 -2.96875 C 14.738281 -3.53125 15.5 -4.304688 16.0625 -5.296875 C 16.625 -6.296875 16.90625 -7.445312 16.90625 -8.75 C 16.90625 -10.050781 16.625 -11.195312 16.0625 -12.1875 C 15.5 -13.1875 14.738281 -13.960938 13.78125 -14.515625 C 12.832031 -15.078125 11.757812 -15.359375 10.5625 -15.359375 C 9.375 -15.359375 8.300781 -15.078125 7.34375 -14.515625 C 6.394531 -13.960938 5.640625 -13.1875 5.078125 -12.1875 C 4.515625 -11.195312 4.234375 -10.050781 4.234375 -8.75 C 4.234375 -7.445312 4.515625 -6.296875 5.078125 -5.296875 C 5.640625 -4.304688 6.394531 -3.53125 7.34375 -2.96875 C 8.300781 -2.414062 9.375 -2.140625 10.5625 -2.140625 Z M 10.5625 -17.953125 C 12.269531 -17.953125 13.800781 -17.570312 15.15625 -16.8125 C 16.507812 -16.0625 17.585938 -14.992188 18.390625 -13.609375 C 19.191406 -12.234375 19.59375 -10.613281 19.59375 -8.75 C 19.59375 -6.90625 19.191406 -5.285156 18.390625 -3.890625 C 17.585938 -2.503906 16.507812 -1.429688 15.15625 -0.671875 C 13.800781 0.078125 12.269531 0.453125 10.5625 0.453125 C 8.882812 0.453125 7.363281 0.078125 6 -0.671875 C 4.632812 -1.429688 3.550781 -2.503906 2.75 -3.890625 C 1.945312 -5.285156 1.546875 -6.90625 1.546875 -8.75 C 1.546875 -10.613281 1.945312 -12.234375 2.75 -13.609375 C 3.550781 -14.992188 4.632812 -16.0625 6 -16.8125 C 7.363281 -17.570312 8.882812 -17.953125 10.5625 -17.953125 Z M 10.5625 -17.953125 "/></g></g></g><g fill="#0f766e" fill-opacity="1"><g transform="translate(545.302928, 222.999977)"><g><path d="M 2.65625 -24.953125 L 5.359375 -24.953125 L 5.359375 0 L 2.65625 0 Z M 2.65625 -24.953125 "/></g></g></g><g fill="#0f766e" fill-opacity="1"><g transform="translate(553.316115, 222.999977)"><g><path d="M 5.390625 -17.5 L 5.390625 0 L 2.6875 0 L 2.6875 -17.5 Z M 2.375 -22.859375 C 2.375 -23.328125 2.53125 -23.722656 2.84375 -24.046875 C 3.164062 -24.367188 3.5625 -24.53125 4.03125 -24.53125 C 4.488281 -24.53125 4.878906 -24.367188 5.203125 -24.046875 C 5.535156 -23.722656 5.703125 -23.328125 5.703125 -22.859375 C 5.703125 -22.390625 5.535156 -21.992188 5.203125 -21.671875 C 4.878906 -21.359375 4.488281 -21.203125 4.03125 -21.203125 C 3.5625 -21.203125 3.164062 -21.359375 2.84375 -21.671875 C 2.53125 -21.992188 2.375 -22.390625 2.375 -22.859375 Z M 2.375 -22.859375 "/></g></g></g><g fill="#0f766e" fill-opacity="1"><g transform="translate(561.399283, 222.999977)"><g><path d="M 10.5625 -2.140625 C 11.757812 -2.140625 12.832031 -2.414062 13.78125 -2.96875 C 14.738281 -3.53125 15.5 -4.304688 16.0625 -5.296875 C 16.625 -6.296875 16.90625 -7.445312 16.90625 -8.75 C 16.90625 -10.050781 16.625 -11.195312 16.0625 -12.1875 C 15.5 -13.1875 14.738281 -13.960938 13.78125 -14.515625 C 12.832031 -15.078125 11.757812 -15.359375 10.5625 -15.359375 C 9.375 -15.359375 8.300781 -15.078125 7.34375 -14.515625 C 6.394531 -13.960938 5.640625 -13.1875 5.078125 -12.1875 C 4.515625 -11.195312 4.234375 -10.050781 4.234375 -8.75 C 4.234375 -7.445312 4.515625 -6.296875 5.078125 -5.296875 C 5.640625 -4.304688 6.394531 -3.53125 7.34375 -2.96875 C 8.300781 -2.414062 9.375 -2.140625 10.5625 -2.140625 Z M 10.5625 -17.953125 C 12.269531 -17.953125 13.800781 -17.570312 15.15625 -16.8125 C 16.507812 -16.0625 17.585938 -14.992188 18.390625 -13.609375 C 19.191406 -12.234375 19.59375 -10.613281 19.59375 -8.75 C 19.59375 -6.90625 19.191406 -5.285156 18.390625 -3.890625 C 17.585938 -2.503906 16.507812 -1.429688 15.15625 -0.671875 C 13.800781 0.078125 12.269531 0.453125 10.5625 0.453125 C 8.882812 0.453125 7.363281 0.078125 6 -0.671875 C 4.632812 -1.429688 3.550781 -2.503906 2.75 -3.890625 C 1.945312 -5.285156 1.546875 -6.90625 1.546875 -8.75 C 1.546875 -10.613281 1.945312 -12.234375 2.75 -13.609375 C 3.550781 -14.992188 4.632812 -16.0625 6 -16.8125 C 7.363281 -17.570312 8.882812 -17.953125 10.5625 -17.953125 Z M 10.5625 -17.953125 "/></g></g></g><g fill="#0f766e" fill-opacity="1"><g transform="translate(582.534505, 222.999977)"><g><path d="M 3.5625 3.640625 L 2.09375 3.640625 C 2.488281 3.171875 2.863281 2.609375 3.21875 1.953125 C 3.570312 1.304688 3.757812 0.769531 3.78125 0.34375 C 3.382812 0.414062 3.003906 0.304688 2.640625 0.015625 C 2.273438 -0.273438 2.09375 -0.710938 2.09375 -1.296875 C 2.09375 -1.828125 2.273438 -2.253906 2.640625 -2.578125 C 3.003906 -2.910156 3.453125 -3.078125 3.984375 -3.078125 C 4.523438 -3.078125 4.957031 -2.882812 5.28125 -2.5 C 5.613281 -2.113281 5.78125 -1.628906 5.78125 -1.046875 C 5.78125 -0.554688 5.664062 -0.015625 5.4375 0.578125 C 5.21875 1.171875 4.9375 1.734375 4.59375 2.265625 C 4.257812 2.804688 3.914062 3.265625 3.5625 3.640625 Z M 3.5625 3.640625 "/></g></g></g><g fill="#0f766e" fill-opacity="1"><g transform="translate(599.890613, 222.999977)"><g><path d="M 5.390625 -17.5 L 5.390625 0 L 2.6875 0 L 2.6875 -17.5 Z M 2.375 -22.859375 C 2.375 -23.328125 2.53125 -23.722656 2.84375 -24.046875 C 3.164062 -24.367188 3.5625 -24.53125 4.03125 -24.53125 C 4.488281 -24.53125 4.878906 -24.367188 5.203125 -24.046875 C 5.535156 -23.722656 5.703125 -23.328125 5.703125 -22.859375 C 5.703125 -22.390625 5.535156 -21.992188 5.203125 -21.671875 C 4.878906 -21.359375 4.488281 -21.203125 4.03125 -21.203125 C 3.5625 -21.203125 3.164062 -21.359375 2.84375 -21.671875 C 2.53125 -21.992188 2.375 -22.390625 2.375 -22.859375 Z M 2.375 -22.859375 "/></g></g></g><g fill="#0f766e" fill-opacity="1"><g transform="translate(607.973781, 222.999977)"><g><path d="M 11.3125 -17.953125 C 13.238281 -17.953125 14.832031 -17.367188 16.09375 -16.203125 C 17.351562 -15.035156 17.984375 -13.296875 17.984375 -10.984375 L 17.984375 0 L 15.296875 0 L 15.296875 -10.78125 C 15.296875 -12.226562 14.898438 -13.375 14.109375 -14.21875 C 13.316406 -15.070312 12.195312 -15.5 10.75 -15.5 C 9.675781 -15.5 8.734375 -15.238281 7.921875 -14.71875 C 7.117188 -14.195312 6.488281 -13.476562 6.03125 -12.5625 C 5.582031 -11.65625 5.359375 -10.609375 5.359375 -9.421875 L 5.359375 0 L 2.65625 0 L 2.65625 -17.5 L 5.359375 -17.5 L 5.359375 -14.421875 C 5.941406 -15.566406 6.738281 -16.441406 7.75 -17.046875 C 8.769531 -17.648438 9.957031 -17.953125 11.3125 -17.953125 Z M 11.3125 -17.953125 "/></g></g></g><g fill="#0f766e" fill-opacity="1"><g transform="translate(637.822053, 222.999977)"><g><path d="M 8.546875 -24.953125 C 8.941406 -24.953125 9.367188 -24.921875 9.828125 -24.859375 C 10.296875 -24.804688 10.679688 -24.734375 10.984375 -24.640625 L 10.984375 -22.328125 C 10.285156 -22.535156 9.597656 -22.640625 8.921875 -22.640625 C 8.035156 -22.640625 7.335938 -22.382812 6.828125 -21.875 C 6.316406 -21.363281 6.0625 -20.628906 6.0625 -19.671875 L 6.0625 -17.5 L 10.390625 -17.5 L 10.390625 -15.046875 L 6.0625 -15.046875 L 6.0625 0 L 3.359375 0 L 3.359375 -15.046875 L 0.734375 -15.046875 L 0.734375 -17.5 L 3.359375 -17.5 L 3.359375 -18.90625 C 3.359375 -20.675781 3.757812 -22.125 4.5625 -23.25 C 5.375 -24.382812 6.703125 -24.953125 8.546875 -24.953125 Z M 8.546875 -24.953125 "/></g></g></g><g fill="#0f766e" fill-opacity="1"><g transform="translate(649.544396, 222.999977)"><g><path d="M 10.5625 -2.140625 C 11.757812 -2.140625 12.832031 -2.414062 13.78125 -2.96875 C 14.738281 -3.53125 15.5 -4.304688 16.0625 -5.296875 C 16.625 -6.296875 16.90625 -7.445312 16.90625 -8.75 C 16.90625 -10.050781 16.625 -11.195312 16.0625 -12.1875 C 15.5 -13.1875 14.738281 -13.960938 13.78125 -14.515625 C 12.832031 -15.078125 11.757812 -15.359375 10.5625 -15.359375 C 9.375 -15.359375 8.300781 -15.078125 7.34375 -14.515625 C 6.394531 -13.960938 5.640625 -13.1875 5.078125 -12.1875 C 4.515625 -11.195312 4.234375 -10.050781 4.234375 -8.75 C 4.234375 -7.445312 4.515625 -6.296875 5.078125 -5.296875 C 5.640625 -4.304688 6.394531 -3.53125 7.34375 -2.96875 C 8.300781 -2.414062 9.375 -2.140625 10.5625 -2.140625 Z M 10.5625 -17.953125 C 12.269531 -17.953125 13.800781 -17.570312 15.15625 -16.8125 C 16.507812 -16.0625 17.585938 -14.992188 18.390625 -13.609375 C 19.191406 -12.234375 19.59375 -10.613281 19.59375 -8.75 C 19.59375 -6.90625 19.191406 -5.285156 18.390625 -3.890625 C 17.585938 -2.503906 16.507812 -1.429688 15.15625 -0.671875 C 13.800781 0.078125 12.269531 0.453125 10.5625 0.453125 C 8.882812 0.453125 7.363281 0.078125 6 -0.671875 C 4.632812 -1.429688 3.550781 -2.503906 2.75 -3.890625 C 1.945312 -5.285156 1.546875 -6.90625 1.546875 -8.75 C 1.546875 -10.613281 1.945312 -12.234375 2.75 -13.609375 C 3.550781 -14.992188 4.632812 -16.0625 6 -16.8125 C 7.363281 -17.570312 8.882812 -17.953125 10.5625 -17.953125 Z M 10.5625 -17.953125 "/></g></g></g><g fill="#0f766e" fill-opacity="1"><g transform="translate(670.679618, 222.999977)"><g><path d="M 10.5625 -17.953125 C 12.0625 -17.953125 13.410156 -17.660156 14.609375 -17.078125 C 15.816406 -16.492188 16.820312 -15.660156 17.625 -14.578125 C 18.425781 -13.492188 18.96875 -12.21875 19.25 -10.75 L 16.453125 -10.75 C 16.078125 -12.144531 15.363281 -13.257812 14.3125 -14.09375 C 13.257812 -14.9375 12.007812 -15.359375 10.5625 -15.359375 C 9.375 -15.359375 8.300781 -15.078125 7.34375 -14.515625 C 6.394531 -13.960938 5.640625 -13.1875 5.078125 -12.1875 C 4.515625 -11.195312 4.234375 -10.050781 4.234375 -8.75 C 4.234375 -7.445312 4.515625 -6.296875 5.078125 -5.296875 C 5.640625 -4.304688 6.394531 -3.53125 7.34375 -2.96875 C 8.300781 -2.414062 9.375 -2.140625 10.5625 -2.140625 C 12.007812 -2.140625 13.257812 -2.550781 14.3125 -3.375 C 15.363281 -4.207031 16.078125 -5.320312 16.453125 -6.71875 L 19.25 -6.71875 C 18.96875 -5.25 18.414062 -3.976562 17.59375 -2.90625 C 16.78125 -1.832031 15.773438 -1.003906 14.578125 -0.421875 C 13.378906 0.160156 12.039062 0.453125 10.5625 0.453125 C 8.882812 0.453125 7.363281 0.078125 6 -0.671875 C 4.632812 -1.429688 3.550781 -2.503906 2.75 -3.890625 C 1.945312 -5.285156 1.546875 -6.90625 1.546875 -8.75 C 1.546875 -10.613281 1.945312 -12.234375 2.75 -13.609375 C 3.550781 -14.992188 4.632812 -16.0625 6 -16.8125 C 7.363281 -17.570312 8.882812 -17.953125 10.5625 -17.953125 Z M 10.5625 -17.953125 "/></g></g></g><g fill="#0f766e" fill-opacity="1"><g transform="translate(691.464925, 222.999977)"><g><path d="M 9.0625 0.453125 C 7.144531 0.453125 5.550781 -0.125 4.28125 -1.28125 C 3.007812 -2.4375 2.375 -4.164062 2.375 -6.46875 L 2.375 -17.5 L 5.078125 -17.5 L 5.078125 -6.71875 C 5.078125 -5.269531 5.472656 -4.117188 6.265625 -3.265625 C 7.054688 -2.421875 8.175781 -2 9.625 -2 C 11.257812 -2 12.566406 -2.554688 13.546875 -3.671875 C 14.523438 -4.796875 15.015625 -6.265625 15.015625 -8.078125 L 15.015625 -17.5 L 17.703125 -17.5 L 17.703125 0 L 15.015625 0 L 15.015625 -3.078125 C 14.429688 -1.929688 13.632812 -1.054688 12.625 -0.453125 C 11.625 0.148438 10.4375 0.453125 9.0625 0.453125 Z M 9.0625 0.453125 "/></g></g></g><g fill="#0f766e" fill-opacity="1"><g transform="translate(711.480389, 222.999977)"><g><path d="M 1.546875 -5.046875 L 4.203125 -5.046875 C 4.222656 -4.242188 4.425781 -3.609375 4.8125 -3.140625 C 5.195312 -2.679688 5.691406 -2.34375 6.296875 -2.125 C 6.898438 -1.914062 7.53125 -1.8125 8.1875 -1.8125 C 8.863281 -1.8125 9.503906 -1.90625 10.109375 -2.09375 C 10.722656 -2.28125 11.234375 -2.582031 11.640625 -3 C 12.046875 -3.425781 12.257812 -3.976562 12.28125 -4.65625 C 12.300781 -5.425781 12.066406 -6.023438 11.578125 -6.453125 C 11.085938 -6.890625 10.445312 -7.226562 9.65625 -7.46875 C 8.863281 -7.71875 8.023438 -7.945312 7.140625 -8.15625 C 6.253906 -8.363281 5.421875 -8.640625 4.640625 -8.984375 C 3.859375 -9.335938 3.210938 -9.828125 2.703125 -10.453125 C 2.203125 -11.085938 1.96875 -11.941406 2 -13.015625 C 2.019531 -14.210938 2.335938 -15.171875 2.953125 -15.890625 C 3.578125 -16.609375 4.375 -17.132812 5.34375 -17.46875 C 6.3125 -17.8125 7.34375 -17.972656 8.4375 -17.953125 C 10.1875 -17.929688 11.628906 -17.476562 12.765625 -16.59375 C 13.910156 -15.707031 14.53125 -14.503906 14.625 -12.984375 L 12.078125 -12.984375 C 11.984375 -13.847656 11.570312 -14.515625 10.84375 -14.984375 C 10.125 -15.453125 9.3125 -15.6875 8.40625 -15.6875 C 7.820312 -15.6875 7.25 -15.601562 6.6875 -15.4375 C 6.125 -15.269531 5.660156 -15 5.296875 -14.625 C 4.941406 -14.25 4.75 -13.757812 4.71875 -13.15625 C 4.695312 -12.457031 4.9375 -11.921875 5.4375 -11.546875 C 5.9375 -11.171875 6.578125 -10.875 7.359375 -10.65625 C 8.148438 -10.4375 8.988281 -10.207031 9.875 -9.96875 C 10.757812 -9.738281 11.59375 -9.429688 12.375 -9.046875 C 13.15625 -8.660156 13.789062 -8.125 14.28125 -7.4375 C 14.769531 -6.75 15.003906 -5.820312 14.984375 -4.65625 C 14.953125 -3.507812 14.609375 -2.550781 13.953125 -1.78125 C 13.304688 -1.007812 12.46875 -0.441406 11.4375 -0.078125 C 10.414062 0.273438 9.320312 0.453125 8.15625 0.453125 C 7.0625 0.429688 6.015625 0.25 5.015625 -0.09375 C 4.023438 -0.445312 3.207031 -1.023438 2.5625 -1.828125 C 1.925781 -2.640625 1.585938 -3.710938 1.546875 -5.046875 Z M 1.546875 -5.046875 "/></g></g></g><g fill="#0f766e" fill-opacity="1"><g transform="translate(728.031634, 222.999977)"><g><path d="M 2.140625 -1.328125 C 2.140625 -1.816406 2.304688 -2.234375 2.640625 -2.578125 C 2.984375 -2.929688 3.398438 -3.109375 3.890625 -3.109375 C 4.398438 -3.109375 4.828125 -2.929688 5.171875 -2.578125 C 5.523438 -2.234375 5.703125 -1.816406 5.703125 -1.328125 C 5.703125 -0.816406 5.523438 -0.390625 5.171875 -0.046875 C 4.828125 0.285156 4.398438 0.453125 3.890625 0.453125 C 3.398438 0.453125 2.984375 0.285156 2.640625 -0.046875 C 2.304688 -0.390625 2.140625 -0.816406 2.140625 -1.328125 Z M 2.140625 -1.328125 "/></g></g></g></svg>